# xmcd
#
# Track frame offsets: 
#        182
#        22147
#        42357
#        61235
#        79127
#        106077
#        127087
#        146655
#        162210
#        180450
#        198705
#        225412
#        242255
#
# Disc length: 3448 seconds
#
# Revision: 1
# Processed by: cddbd v1.5.2PL0 Copyright (c) Steve Scherf et al.
# Submitted via: ExactAudioCopy v1.0b4
#
DISCID=a90d760d
DTITLE=Sybil - Doin' It Now
DYEAR=1993
DGENRE=Blues
TTITLE0=You're The Love Of My Life
TTITLE1=We
TTITLE2=Oh, How I Love You
TTITLE3=Take Me Back
TTITLE4=Let It Rain
TTITLE5=Breath A Prayer
TTITLE6=When It's Gone Away
TTITLE7=The Love I Lost
TTITLE8=Now Or Never
TTITLE9=Guarantee of Love
TTITLE10=What A Diff'rence A Day Makes
TTITLE11=Love's Calling
TTITLE12=Back Together Again
EXTD=
EXTT0=
EXTT1=
EXTT2=
EXTT3=
EXTT4=
EXTT5=
EXTT6=
EXTT7=
EXTT8=
EXTT9=
EXTT10=
EXTT11=
EXTT12=
PLAYORDER=
